<?xml version="1.0"?>
<svg xmlns="http://www.w3.org/2000/svg" width="512" height="512" viewBox="0 0 128 128"><g><path d="M122.041,58.129,109.82,55.65,97.388,34.528a1.749,1.749,0,0,0-1.508-.862H89.913V27.554a1.75,1.75,0,0,0-1.75-1.75h-6.1a1.75,1.75,0,0,0-1.75,1.75v6.112H73.986a1.75,1.75,0,0,0-1.75,1.75V62.25H64.573v-34.7a1.75,1.75,0,0,0-1.75-1.75H17.47a1.75,1.75,0,0,0-1.75,1.75v34.7H6.307A1.749,1.749,0,0,0,4.557,64V93.06a1.75,1.75,0,0,0,1.75,1.75H16.812a15.216,15.216,0,0,0,26.094,0H85.094a15.216,15.216,0,0,0,26.094,0h10.5a1.75,1.75,0,0,0,1.75-1.75V59.844A1.75,1.75,0,0,0,122.041,58.129Zm-2.1,12.841H115.13V67.729h4.813Zm-14.3-15.509H83.813V44.618H99.265ZM83.813,29.3h2.6v4.362h-2.6Zm-8.077,7.862H94.879l2.326,3.952H82.063a1.75,1.75,0,0,0-1.75,1.75V57.211a1.75,1.75,0,0,0,1.75,1.75h26.47l11.41,2.313v2.955H113.38a1.75,1.75,0,0,0-1.75,1.75V72.72a1.75,1.75,0,0,0,1.75,1.75h6.563v4.647H111.22a15.217,15.217,0,0,0-26.159,0H75.736V37.166ZM41.9,62.25V51.98H61.073V62.25ZM61.073,48.48H41.9V29.3H61.073ZM38.4,29.3V48.48H19.22V29.3ZM19.22,51.98H38.4V62.25H19.22ZM72.236,65.75V79.117h-29.3a15.217,15.217,0,0,0-26.159,0H8.057V65.75ZM8.057,91.31V82.617h7.175a15.1,15.1,0,0,0,.014,8.693Zm21.8,7.386a11.76,11.76,0,1,1,11.76-11.759A11.772,11.772,0,0,1,29.859,98.7ZM44.473,91.31a15.1,15.1,0,0,0,.014-8.693H83.513a15.1,15.1,0,0,0,.014,8.693ZM98.141,98.7A11.76,11.76,0,1,1,109.9,86.937,11.772,11.772,0,0,1,98.141,98.7Zm21.8-7.386h-7.189a15.1,15.1,0,0,0,.014-8.693h7.175Z"/><path d="M29.859,80.158a6.779,6.779,0,1,0,6.779,6.779A6.786,6.786,0,0,0,29.859,80.158Zm0,10.057a3.279,3.279,0,1,1,3.279-3.278A3.281,3.281,0,0,1,29.859,90.215Z"/><path d="M98.141,80.158a6.779,6.779,0,1,0,6.777,6.779A6.787,6.787,0,0,0,98.141,80.158Zm0,10.057a3.279,3.279,0,1,1,3.277-3.278A3.283,3.283,0,0,1,98.141,90.215Z"/><path d="M82.063,65.75h4.006a1.75,1.75,0,1,0,0-3.5H82.063a1.75,1.75,0,1,0,0,3.5Z"/></g></svg>
