<?xml version="1.0" encoding="iso-8859-1"?>
<!-- Generator: Adobe Illustrator 19.0.0, SVG Export Plug-In . SVG Version: 6.00 Build 0)  -->
<svg version="1.1" id="Capa_1" xmlns="http://www.w3.org/2000/svg" xmlns:xlink="http://www.w3.org/1999/xlink" x="0px" y="0px"
	 viewBox="0 0 512 512" style="enable-background:new 0 0 512 512;" xml:space="preserve">
<g>
	<g>
		<path d="M315.044,213.542l-49.365-36.658c-2.96-2.201-6.848-2.538-10.145-0.881c-3.296,1.658-5.344,4.98-5.344,8.669v12.104
			h-31.356c-5.35,0-9.703,4.353-9.703,9.703v29.707c0,5.351,4.353,9.703,9.703,9.703h31.356v12.104c0,3.689,2.048,7.011,5.343,8.668
			c1.389,0.699,2.883,1.044,4.369,1.044c2.039,0,4.062-0.649,5.775-1.923l49.366-36.66c2.454-1.822,3.919-4.734,3.919-7.79
			C318.962,218.275,317.497,215.363,315.044,213.542z M264.776,248.283v-9.687c0-4.028-3.265-7.293-7.293-7.293h-33.765v-19.941
			h33.765c4.028,0,7.293-3.265,7.293-7.293v-9.686l36.29,26.95L264.776,248.283z"/>
	</g>
</g>
<g>
	<g>
		<path d="M479.935,253.029l-29.51-42.299c-1.979-2.839-5.226-4.533-8.687-4.533h-63.072c-5.839,0-10.59,4.75-10.59,10.59v62.752
			c0,5.84,4.751,10.59,10.59,10.59h92.584c5.839,0,10.59-4.75,10.59-10.59v-20.451C481.84,256.908,481.18,254.812,479.935,253.029z
			 M467.252,275.542h-84.589v-54.758h56.989l27.6,39.56V275.542z"/>
	</g>
</g>
<g>
	<g>
		<path d="M511.985,355.228v-99.851c0-5.952-1.8-11.677-5.205-16.556l-35.157-50.392c-5.407-7.751-14.279-12.379-23.73-12.379
			h-17.192c-4.028,0-7.293,3.265-7.293,7.293s3.265,7.293,7.293,7.293h17.192c4.687,0,9.085,2.294,11.767,6.138l35.158,50.393
			c1.688,2.419,2.58,5.257,2.58,8.209v92.596h-24.851c-0.177-0.35-0.364-0.693-0.549-1.037c-0.065-0.12-0.126-0.242-0.192-0.362
			c-0.343-0.626-0.698-1.243-1.066-1.851c-0.124-0.206-0.255-0.408-0.382-0.613c-0.239-0.383-0.482-0.764-0.731-1.14
			c-0.188-0.284-0.377-0.568-0.57-0.848c-0.167-0.241-0.338-0.477-0.508-0.714c-8.378-11.715-21.615-19.719-36.747-21.04
			c-0.463-0.041-0.927-0.078-1.392-0.106c-0.263-0.016-0.527-0.031-0.791-0.043c-0.748-0.034-1.498-0.057-2.251-0.057
			c-0.753,0-1.503,0.023-2.251,0.057c-0.264,0.012-0.528,0.027-0.791,0.043c-0.465,0.029-0.929,0.065-1.392,0.106
			c-15.134,1.321-28.372,9.327-36.75,21.045c-0.169,0.235-0.339,0.47-0.504,0.708c-0.194,0.282-0.384,0.566-0.573,0.852
			c-0.248,0.374-0.49,0.753-0.728,1.135c-0.128,0.206-0.259,0.409-0.385,0.617c-0.367,0.608-0.722,1.224-1.065,1.85
			c-0.065,0.12-0.127,0.242-0.192,0.362c-0.185,0.344-0.372,0.688-0.549,1.037h-24.765V190.638h27.962
			c4.028,0,7.293-3.265,7.293-7.293s-3.265-7.293-7.293-7.293h-27.962v-71.581c0-7.641-6.217-13.858-13.858-13.858H13.858
			C6.217,90.612,0,96.829,0,104.47v161.144c0,4.029,3.265,7.293,7.293,7.293c4.028,0,7.293-3.265,7.293-7.293V105.199h328.249
			v78.145v164.63H151.051c-0.172-0.34-0.354-0.673-0.534-1.008c-0.071-0.133-0.14-0.268-0.212-0.401
			c-0.339-0.619-0.69-1.229-1.054-1.831c-0.132-0.218-0.269-0.432-0.404-0.648c-0.231-0.369-0.465-0.736-0.705-1.099
			c-0.194-0.294-0.389-0.586-0.589-0.876c-0.155-0.224-0.315-0.444-0.473-0.664c-8.377-11.736-21.626-19.756-36.775-21.078
			c-0.463-0.041-0.926-0.078-1.392-0.106c-0.263-0.016-0.527-0.031-0.791-0.043c-0.748-0.034-1.498-0.057-2.251-0.057
			s-1.503,0.023-2.251,0.057c-0.264,0.012-0.528,0.027-0.791,0.043c-0.465,0.029-0.929,0.065-1.392,0.106
			c-15.144,1.322-28.39,9.337-36.767,21.067c-0.162,0.226-0.325,0.45-0.483,0.679c-0.198,0.287-0.392,0.577-0.584,0.869
			c-0.242,0.366-0.478,0.735-0.711,1.108c-0.133,0.214-0.27,0.426-0.4,0.642c-0.364,0.603-0.716,1.213-1.055,1.833
			c-0.072,0.131-0.14,0.265-0.211,0.398c-0.18,0.336-0.362,0.67-0.535,1.011H30.308H14.587v-36.719c0-4.028-3.265-7.293-7.293-7.293
			S0,307.226,0,311.255v37.448c0,7.641,6.217,13.858,13.858,13.858h9.157v12.946c0,5.963,4.851,10.815,10.815,10.815h23.883
			c6.577,20.322,25.674,35.065,48.158,35.065s41.581-14.742,48.158-35.065h225.18c6.577,20.322,25.674,35.065,48.158,35.065
			s41.581-14.742,48.158-35.065h8.192C499.312,386.321,512,373.634,512,357.999L511.985,355.228z M55.889,362.828
			c-0.043,0.27-0.078,0.542-0.116,0.813c-0.073,0.514-0.14,1.029-0.197,1.545c-0.031,0.281-0.06,0.563-0.086,0.845
			c-0.051,0.54-0.091,1.082-0.124,1.625c-0.015,0.248-0.034,0.495-0.045,0.744c-0.037,0.789-0.06,1.581-0.06,2.374
			c0,0.32,0.003,0.64,0.009,0.96H37.602v-9.174h18.325C55.912,362.649,55.903,362.739,55.889,362.828z M141.852,372.527
			c-0.022,0.446-0.058,0.893-0.097,1.339c-0.011,0.124-0.017,0.25-0.028,0.374c-0.05,0.518-0.114,1.036-0.187,1.554
			c-0.007,0.053-0.013,0.108-0.021,0.161c-0.071,0.489-0.156,0.976-0.247,1.463c-3.128,16.7-17.806,29.381-35.4,29.381
			s-32.273-12.681-35.4-29.381c-0.091-0.487-0.176-0.974-0.247-1.463c-0.008-0.053-0.013-0.108-0.021-0.161
			c-0.073-0.518-0.137-1.036-0.187-1.554c-0.012-0.124-0.018-0.249-0.028-0.374c-0.039-0.447-0.075-0.893-0.097-1.339
			c-0.028-0.581-0.044-1.165-0.044-1.753c0-0.59,0.016-1.176,0.045-1.759c0.01-0.199,0.028-0.397,0.041-0.596
			c0.025-0.382,0.05-0.763,0.087-1.142c0.023-0.241,0.054-0.48,0.083-0.721c0.039-0.332,0.079-0.664,0.127-0.994
			c0.038-0.262,0.082-0.522,0.126-0.782c0.051-0.302,0.103-0.603,0.161-0.902c0.054-0.278,0.113-0.554,0.174-0.831
			c0.06-0.276,0.124-0.55,0.19-0.823c0.071-0.29,0.145-0.58,0.224-0.869c0.069-0.256,0.143-0.51,0.217-0.764
			c0.087-0.294,0.175-0.587,0.27-0.88c0.082-0.253,0.169-0.504,0.256-0.754c0.097-0.28,0.195-0.559,0.299-0.837
			c0.063-0.167,0.131-0.332,0.197-0.498c0.279-0.71,0.577-1.409,0.898-2.094c0.039-0.084,0.075-0.17,0.115-0.253
			c0.351-0.734,0.731-1.449,1.129-2.153c0.08-0.142,0.162-0.284,0.245-0.425c0.874-1.497,1.845-2.926,2.915-4.268
			c0.001-0.001,0.002-0.002,0.002-0.003c6.131-7.692,15.284-12.707,25.256-13.546c0.146-0.012,0.291-0.023,0.438-0.033
			c0.839-0.06,1.682-0.099,2.531-0.099s1.692,0.039,2.531,0.099c0.146,0.01,0.292,0.021,0.438,0.033
			c9.971,0.839,19.125,5.854,25.256,13.546c0.001,0.001,0.002,0.002,0.002,0.003c1.07,1.342,2.041,2.771,2.915,4.268
			c0.082,0.141,0.164,0.283,0.245,0.425c0.398,0.703,0.777,1.419,1.128,2.153c0.04,0.083,0.075,0.169,0.115,0.253
			c0.321,0.685,0.62,1.384,0.898,2.094c0.065,0.166,0.134,0.331,0.197,0.498c0.104,0.278,0.202,0.557,0.299,0.837
			c0.087,0.251,0.174,0.501,0.256,0.754c0.094,0.292,0.183,0.586,0.27,0.88c0.075,0.254,0.148,0.508,0.217,0.764
			c0.078,0.289,0.153,0.578,0.224,0.869c0.067,0.273,0.13,0.548,0.19,0.823c0.061,0.276,0.119,0.553,0.174,0.831
			c0.058,0.299,0.111,0.6,0.161,0.902c0.044,0.26,0.088,0.521,0.126,0.782c0.048,0.33,0.088,0.662,0.127,0.994
			c0.028,0.24,0.059,0.48,0.083,0.721c0.037,0.378,0.062,0.76,0.087,1.142c0.013,0.199,0.031,0.397,0.041,0.596
			c0.028,0.583,0.045,1.169,0.045,1.759C141.896,371.362,141.88,371.946,141.852,372.527z M377.385,362.828
			c-0.043,0.269-0.078,0.541-0.116,0.812c-0.073,0.514-0.14,1.029-0.197,1.546c-0.031,0.28-0.059,0.561-0.086,0.843
			c-0.051,0.541-0.091,1.084-0.124,1.628c-0.015,0.247-0.034,0.494-0.045,0.742c-0.037,0.79-0.06,1.581-0.06,2.375
			c0,0.32,0.003,0.64,0.009,0.96H156.473c0.006-0.32,0.01-0.64,0.01-0.96c0-0.794-0.024-1.585-0.06-2.374
			c-0.012-0.249-0.03-0.496-0.045-0.744c-0.033-0.543-0.073-1.085-0.124-1.625c-0.026-0.282-0.055-0.564-0.086-0.845
			c-0.057-0.516-0.124-1.031-0.197-1.545c-0.038-0.271-0.074-0.543-0.116-0.813c-0.014-0.089-0.024-0.178-0.038-0.267H350.13h27.294
			C377.409,362.65,377.399,362.739,377.385,362.828z M463.348,372.527c-0.022,0.446-0.058,0.893-0.097,1.339
			c-0.011,0.124-0.017,0.25-0.028,0.374c-0.05,0.518-0.114,1.036-0.187,1.554c-0.008,0.053-0.013,0.108-0.021,0.161
			c-0.071,0.489-0.156,0.976-0.247,1.463c-3.127,16.7-17.806,29.381-35.4,29.381c-17.589,0-32.266-12.675-35.398-29.369
			c-0.092-0.49-0.177-0.98-0.248-1.472c-0.008-0.059-0.014-0.118-0.023-0.177c-0.072-0.512-0.135-1.024-0.185-1.537
			c-0.013-0.133-0.019-0.268-0.031-0.401c-0.038-0.438-0.074-0.876-0.095-1.313c-0.028-0.582-0.045-1.166-0.045-1.754
			c0-0.59,0.016-1.176,0.045-1.759c0.01-0.199,0.028-0.397,0.041-0.595c0.025-0.382,0.05-0.764,0.087-1.143
			c0.023-0.24,0.054-0.479,0.082-0.718c0.039-0.334,0.079-0.667,0.127-0.997c0.038-0.259,0.082-0.517,0.125-0.775
			c0.051-0.305,0.104-0.61,0.163-0.912c0.053-0.273,0.111-0.545,0.171-0.817c0.062-0.282,0.126-0.562,0.195-0.842
			c0.069-0.284,0.142-0.567,0.219-0.849c0.072-0.264,0.147-0.527,0.224-0.789c0.084-0.285,0.17-0.57,0.262-0.853
			c0.086-0.265,0.176-0.527,0.267-0.789c0.093-0.268,0.187-0.536,0.287-0.802c0.066-0.176,0.138-0.35,0.207-0.524
			c0.275-0.698,0.568-1.386,0.884-2.06c0.043-0.093,0.083-0.188,0.127-0.28c0.349-0.728,0.726-1.439,1.12-2.137
			c0.084-0.148,0.169-0.296,0.255-0.443c0.871-1.491,1.838-2.913,2.903-4.251c0.005-0.006,0.009-0.012,0.014-0.018
			c6.131-7.688,15.282-12.701,25.251-13.54c0.146-0.012,0.292-0.023,0.438-0.033c0.839-0.06,1.682-0.099,2.531-0.099
			s1.692,0.039,2.531,0.099c0.146,0.01,0.292,0.021,0.438,0.033c9.969,0.839,19.119,5.852,25.25,13.54
			c0.005,0.006,0.01,0.013,0.015,0.019c1.065,1.337,2.031,2.759,2.902,4.249c0.086,0.147,0.172,0.295,0.256,0.444
			c0.395,0.698,0.771,1.408,1.12,2.137c0.044,0.092,0.083,0.187,0.127,0.28c0.316,0.674,0.609,1.362,0.884,2.06
			c0.069,0.175,0.141,0.348,0.207,0.524c0.1,0.266,0.193,0.534,0.287,0.802c0.092,0.262,0.182,0.525,0.268,0.789
			c0.091,0.282,0.177,0.566,0.261,0.849c0.078,0.264,0.154,0.528,0.226,0.795c0.076,0.28,0.148,0.561,0.217,0.843
			c0.069,0.281,0.134,0.563,0.196,0.847c0.059,0.27,0.117,0.541,0.17,0.812c0.059,0.304,0.113,0.611,0.164,0.918
			c0.043,0.256,0.087,0.513,0.124,0.77c0.049,0.333,0.089,0.669,0.128,1.005c0.028,0.237,0.058,0.473,0.081,0.71
			c0.037,0.382,0.063,0.766,0.088,1.151c0.013,0.196,0.031,0.392,0.04,0.589c0.028,0.583,0.045,1.17,0.045,1.76
			C463.392,371.362,463.376,371.946,463.348,372.527z M483.717,371.735h-5.748c0.006-0.32,0.009-0.64,0.009-0.96
			c0-0.794-0.024-1.586-0.06-2.375c-0.012-0.248-0.03-0.495-0.045-0.742c-0.033-0.544-0.073-1.087-0.124-1.628
			c-0.026-0.282-0.055-0.563-0.086-0.843c-0.057-0.517-0.124-1.032-0.197-1.546c-0.038-0.271-0.074-0.543-0.116-0.812
			c-0.014-0.089-0.024-0.178-0.038-0.267h19.334C494.774,367.898,489.686,371.735,483.717,371.735z"/>
	</g>
</g>
<g>
	<g>
		<path d="M427.368,347.392c-12.893,0-23.382,10.489-23.382,23.383s10.489,23.383,23.382,23.383
			c12.893,0,23.383-10.489,23.383-23.383C450.75,357.881,440.261,347.392,427.368,347.392z M427.368,379.57
			c-4.85,0-8.795-3.946-8.795-8.796c0-4.85,3.945-8.796,8.795-8.796c4.85,0,8.796,3.946,8.796,8.796
			C436.163,375.624,432.217,379.57,427.368,379.57z"/>
	</g>
</g>
<g>
	<g>
		<path d="M105.871,347.392c-12.893,0-23.383,10.489-23.383,23.383s10.49,23.383,23.383,23.383
			c12.893,0,23.383-10.489,23.383-23.383C129.254,357.881,118.764,347.392,105.871,347.392z M105.871,379.57
			c-4.85,0-8.796-3.946-8.796-8.796c0-4.85,3.946-8.796,8.796-8.796c4.85,0,8.796,3.946,8.796,8.796S110.721,379.57,105.871,379.57z
			"/>
	</g>
</g>
<g>
	<g>
		<path d="M178.294,210.337l-60.986-57.292c-2.807-2.637-7.181-2.636-9.987,0l-60.989,57.292c-2.936,2.758-3.081,7.374-0.323,10.31
			c2.761,2.937,7.376,3.08,10.31,0.322l55.995-52.601l55.994,52.601c1.407,1.322,3.201,1.978,4.991,1.978
			c1.944,0,3.882-0.772,5.318-2.3C181.375,217.711,181.23,213.095,178.294,210.337z"/>
	</g>
</g>
<g>
	<g>
		<path d="M157.9,219.74l-37.331-35.069c-4.629-4.349-11.882-4.349-16.511,0l-37.33,35.067c-2.418,2.269-3.804,5.473-3.804,8.79
			v51.014c0,6.649,5.409,12.057,12.058,12.057h24.69v0.001h25.284h24.689c6.649,0,12.057-5.409,12.057-12.057v-51.015
			C161.702,225.213,160.316,222.01,157.9,219.74z M117.663,277.013h-10.697v-25.284h10.697V277.013z M147.116,277.013H132.25
			v-29.906c0-5.495-4.471-9.965-9.966-9.965h-19.94c-5.495,0-9.965,4.471-9.965,9.965v29.906H77.512v-47.391l34.802-32.693
			l34.802,32.693V277.013z"/>
	</g>
</g>
<g>
</g>
<g>
</g>
<g>
</g>
<g>
</g>
<g>
</g>
<g>
</g>
<g>
</g>
<g>
</g>
<g>
</g>
<g>
</g>
<g>
</g>
<g>
</g>
<g>
</g>
<g>
</g>
<g>
</g>
</svg>
