<?xml version="1.0" encoding="iso-8859-1"?>
<!-- Generator: Adobe Illustrator 17.1.0, SVG Export Plug-In . SVG Version: 6.00 Build 0)  -->
<!DOCTYPE svg PUBLIC "-//W3C//DTD SVG 1.1//EN" "http://www.w3.org/Graphics/SVG/1.1/DTD/svg11.dtd">
<svg version="1.1" id="Capa_1" xmlns="http://www.w3.org/2000/svg" xmlns:xlink="http://www.w3.org/1999/xlink" x="0px" y="0px"
	 viewBox="0 0 368.554 368.554" style="enable-background:new 0 0 368.554 368.554;" xml:space="preserve">
<g>
	<path d="M361.054,299.747H20.238l52.933-95.407c9.16-16.51,25.118-27.621,43.781-30.483c18.661-2.861,37.216,2.957,50.903,15.963
		l23.642,22.468c9.157,8.702,21.622,13.005,34.198,11.81c12.576-1.197,24.004-7.776,31.354-18.048l0.451-0.63
		c3.23-4.515,8.249-7.036,13.816-6.949c5.55,0.099,10.493,2.809,13.56,7.436l43.652,65.85c2.288,3.453,6.943,4.396,10.395,2.107
		c3.452-2.289,4.396-6.942,2.107-10.395l-43.652-65.85c-5.749-8.672-15.392-13.96-25.795-14.146
		c-10.417-0.197-20.229,4.756-26.281,13.216l-0.451,0.63c-4.824,6.743-12.324,11.061-20.578,11.846
		c-8.257,0.783-16.434-2.04-22.443-7.75l-23.642-22.468c-17.076-16.228-40.227-23.486-63.51-19.917
		c-23.285,3.571-43.194,17.433-54.623,38.032L0.942,303.609c-1.289,2.323-1.253,5.155,0.095,7.444
		c1.348,2.29,3.806,3.695,6.463,3.695h353.554c4.142,0,7.5-3.358,7.5-7.5S365.196,299.747,361.054,299.747z"/>
	<path d="M172.373,165.515c3.271,2.543,7.983,1.951,10.524-1.32l11.924-15.345l30.269,23.521l-11.924,15.345
		c-2.542,3.271-1.951,7.982,1.32,10.524c1.368,1.063,2.989,1.579,4.597,1.579c2.236,0,4.449-0.996,5.927-2.898l16.526-21.267
		c1.221-1.571,1.768-3.562,1.52-5.536s-1.269-3.768-2.84-4.988l-15.135-11.761l50.648-65.176l15.134,11.761
		c1.368,1.063,2.989,1.579,4.597,1.579c2.236,0,4.449-0.996,5.927-2.898c2.542-3.271,1.951-7.982-1.32-10.524l-42.113-32.726
		c-3.271-2.542-7.983-1.95-10.524,1.32c-2.542,3.271-1.951,7.982,1.32,10.524l15.134,11.761l-50.648,65.176l-15.134-11.761
		c-3.271-2.542-7.983-1.95-10.524,1.32l-16.526,21.267C168.511,158.261,169.102,162.973,172.373,165.515z"/>
</g>
<g>
</g>
<g>
</g>
<g>
</g>
<g>
</g>
<g>
</g>
<g>
</g>
<g>
</g>
<g>
</g>
<g>
</g>
<g>
</g>
<g>
</g>
<g>
</g>
<g>
</g>
<g>
</g>
<g>
</g>
</svg>
